<?xml version="1.0" standalone="no"?>
<!DOCTYPE svg PUBLIC "-//W3C//DTD SVG 20010904//EN"
 "http://www.w3.org/TR/2001/REC-SVG-20010904/DTD/svg10.dtd">
<svg version="1.0" xmlns="http://www.w3.org/2000/svg"
 width="40.000000pt" height="40.000000pt" viewBox="0 0 40.000000 40.000000"
 preserveAspectRatio="xMidYMid meet">

<g transform="translate(0.000000,40.000000) scale(0.100000,-0.100000)"
fill="#000000" stroke="none">
<path d="M313 331 c-6 -25 -20 -27 -45 -4 -18 16 -21 15 -66 -30 -45 -45 -46
-48 -29 -64 17 -17 19 -17 28 0 6 9 19 17 29 17 25 0 27 -35 3 -49 -17 -9 -17
-11 -1 -27 16 -17 19 -17 36 -1 23 21 42 22 42 2 0 -8 6 -15 13 -15 26 0 28
14 5 31 -22 17 -22 18 -4 38 18 20 18 22 3 39 -23 25 -21 39 4 45 22 6 22 28
0 35 -7 2 -15 -5 -18 -17z"/>
</g>
</svg>
