<?xml version="1.0" encoding="utf-8"?>
<svg version="1.1" id="Layer_1" xmlns="http://www.w3.org/2000/svg" xmlns:xlink="http://www.w3.org/1999/xlink" x="0px" y="0px"
	 viewBox="0 0 40 40" style="enable-background:new 0 0 40 40;" xml:space="preserve">
<style type="text/css">
	.st0{fill:#FAFBFC;}
	.st1{fill:#FCB613;}
	.st2{fill:#FFFFFF;}
	.st3{fill:#FCB714;}
	.st4{fill:#F9F9F9;}
</style>
<g>
	<path class="st0" d="M10.8,11.3c0,0,0.1,0,0.1,0c0.3,0.1,0.3,0.1,0.3-0.3c0-0.4,0-0.4,0.4-0.4c2,0,4,0,6,0c0.2,0,0.3,0,0.2-0.3
		c-0.1-0.2-0.1-0.4-0.2-0.6c0.1,0,0.3,0,0.4,0.1c0.2,0.7,0.5,1.2,1,1.7c0.1,0.1,0.3,0.3,0.5,0.4c0-0.3,0-0.6,0-0.9
		c0-0.1,0-0.2,0.1-0.2c0.3,0,0.6,0,0.9,0c0.1,0,0.2,0,0.2,0.2c0,0.1-0.1,0.2-0.2,0.2c-0.2,0-0.3,0-0.5,0c-0.2,0-0.3,0.1-0.3,0.3
		c0,1.5,0,2.9,0,4.4c0,0.6,0,0.6,0.6,0.6c0,0,0.1,0,0.1,0c0.1,0,0.2,0,0.2,0.2c0,0.1-0.1,0.2-0.2,0.2c-0.3,0-0.6,0-0.8,0
		c-0.2,0-0.2-0.1-0.2-0.2c0-0.8,0-1.6,0-2.4c0-0.1,0-0.2-0.2-0.2c0,0-0.1,0-0.2,0c-0.1,0-0.2,0-0.2-0.2c0-0.1,0.1-0.2,0.2-0.2
		c0.4,0,0.4,0,0.4-0.4c0-0.1,0-0.2,0-0.3c0.1-0.4,0-0.7-0.5-0.9c-0.3-0.2-0.5-0.4-0.7-0.7c-0.1,0.6-0.2,1.2-0.3,1.8
		c-0.4,2.1-0.7,4.2-1.1,6.3c0,0.1,0,0.2,0.2,0.2c0.2,0,0.4,0,0.6,0c2.4,0,4.9,0,7.3,0c0.4,0,0.4,0,0.4-0.4c-0.3-2.2-0.6-4.4-1-6.6
		c-0.1-0.4-0.1-0.9-0.2-1.4c-0.2,0.3-0.4,0.4-0.6,0.6c-0.2,0.2-0.6,0.2-0.6,0.5c-0.1,0.3,0,0.6,0,0.9c0,0.2,0,0.3,0.3,0.3
		c0.1,0,0.3,0,0.2,0.2c0,0.1-0.1,0.2-0.2,0.1c-0.3,0-0.3,0.1-0.3,0.3c0,0.8,0,1.5,0,2.3c0,0.1,0,0.2-0.1,0.2c-0.3,0-0.6,0-0.9,0
		c-0.1,0-0.2-0.1-0.2-0.2c0-0.1,0.1-0.2,0.2-0.2c0.2,0,0.4,0,0.6,0c0.1,0,0.2,0,0.2-0.2c0-1.6,0-3.3,0-4.9c0-0.1,0-0.2-0.2-0.2
		c-0.2,0-0.3,0-0.5,0c-0.1,0-0.3,0-0.3-0.2c0-0.2,0.1-0.2,0.3-0.2c0.3,0,0.5,0,0.8,0c0.2,0,0.2,0.1,0.2,0.2c0,0.3,0,0.6,0,0.9
		c0.7-0.4,1.3-1.2,1.5-2C24.7,10,24.9,10,25,10c-0.1,0.3-0.2,0.5-0.3,0.8c0.5,0.1,0.9,0.1,1.4,0.2c0.7,0.1,1.1,0.5,1.3,1.2
		c0.7,2.3,1.4,4.7,2.1,7.1c0.2,0.7,0.4,1.4,0.6,2.1c0.1,0.2,0,0.3-0.2,0.3c-0.4-0.1-0.6,0.1-0.7,0.5c-0.2,0.7-1,1.1-1.8,0.9
		c-0.1,0-0.2-0.1-0.2,0c0.1,0.8,0.2,1.7,0.3,2.5c0.1,0.8,0.2,1.7,0.3,2.5c0,0.2,0.1,0.3,0.3,0.3c2.3,0,4.7,0,7,0c0,0,0.1,0,0.2,0
		c0.1,0,0.2,0,0.1,0.1c0,0.1-0.1,0.1-0.2,0.1c-0.1,0-0.1,0-0.2,0c-10.2,0-20.4,0-30.6,0c-0.1,0-0.3,0.1-0.3-0.1
		c0-0.2,0.2-0.1,0.3-0.1c3.3,0,6.6,0,9.9,0c0.2,0,0.3,0,0.3-0.2c0.3-2.7,0.7-5.4,1.1-8.1c0.1-0.8,0.2-1.7,0.3-2.5
		c0-0.3,0-0.4-0.3-0.2c-1.4,0.5-2.7,1.1-4.1,1.6c-0.3,0.1-0.4,0.1-0.4-0.2c0-1.4,0-2.7,0-4.1c0-0.2,0-0.3-0.3-0.2
		c-0.1,0-0.2,0-0.2,0.1c0-0.1,0-0.1,0-0.2c0,0,0.1,0,0.1,0c0.3,0,0.4-0.1,0.4-0.4c0-0.5,0-1,0-1.5c0-0.5,0-0.5-0.5-0.6
		C10.8,11.5,10.8,11.4,10.8,11.3z M27.6,28.2c-0.1-0.6-0.2-1.1-0.3-1.7C27.2,26,27.2,26,26.6,26c-0.2,0-0.3-0.1-0.3-0.3
		c-0.2-1.3-0.4-2.5-0.6-3.8c0-0.2-0.1-0.4-0.4-0.3c-2.8,0-5.6,0-8.3,0c-0.2,0-0.3,0.1-0.3,0.3c-0.2,1.2-0.3,2.4-0.5,3.6
		C16.1,26,16.1,26,15.5,26c-0.2,0-0.3,0.1-0.3,0.3c-0.1,0.6-0.1,1.1-0.2,1.7c0,0.2,0,0.3,0.2,0.3c4,0,8,0,12.1,0
		C27.4,28.2,27.5,28.2,27.6,28.2z M28.1,21.6C28.1,21.6,28.1,21.6,28.1,21.6c-0.3,0-0.5,0-0.8,0c0,0-0.1,0-0.1,0c-0.1,0-0.1,0-0.2,0
		c-0.1,0.1,0.1,1,0.2,1.1c0,0,0,0,0,0c0.7,0.4,1.7-0.1,1.8-0.9c0-0.1,0-0.2-0.2-0.2C28.7,21.6,28.4,21.6,28.1,21.6z"/>
	<path class="st1" d="M18.1,10c-0.1-0.1-0.3-0.1-0.4-0.1c-1.3-0.3-2.6-0.8-3.6-1.7c-0.5-0.4-0.9-0.9-1-1.6c0-0.3,0-0.4,0.2-0.6
		c2.6-1.6,5.2-3.3,7.8-4.9c0.2-0.1,0.3-0.1,0.5,0c2.6,1.6,5.2,3.3,7.8,4.9c0.2,0.1,0.3,0.2,0.2,0.5c0,0.6-0.3,1-0.7,1.4
		c-0.6,0.6-1.3,1-2,1.3c-0.6,0.3-1.3,0.5-2,0.7c-0.1,0-0.3,0-0.4,0.1C22.4,10.5,20.3,10.5,18.1,10z"/>
	<path class="st2" d="M16.5,34.1c0,0.1,0,0.2,0,0.3c0,1.6,0,3.2,0,4.8c0,0.2,0,0.3-0.3,0.3c-0.2,0-0.5,0.1-0.6-0.1
		c-0.1-0.1,0-0.4,0-0.6c0-1.9,0-3.8,0-5.7c0-0.2,0.1-0.3,0.3-0.3c0.3,0,0.7-0.1,0.9,0c0.2,0.1,0.4,0.5,0.5,0.7
		c1,1.4,1.9,2.9,2.9,4.3c0.1,0.1,0.1,0.2,0.3,0.4c0-0.1,0-0.2,0-0.3c0-1.6,0-3.3,0-4.9c0-0.2,0-0.3,0.2-0.3c0.2,0,0.5-0.1,0.6,0
		c0.1,0.1,0,0.4,0,0.6c0,1.9,0,3.8,0,5.7c0,0.2,0,0.3-0.3,0.3c-0.7,0.1-1-0.2-1.4-0.7c-0.9-1.5-1.9-2.9-2.9-4.4
		C16.7,34.3,16.6,34.2,16.5,34.1C16.6,34.1,16.5,34.1,16.5,34.1z"/>
	<path class="st2" d="M27.9,36.1c0-1,0-2,0-3.1c0-0.2,0.1-0.2,0.2-0.2c1.3,0,2.5,0,3.8,0c0.2,0,0.2,0.1,0.2,0.2c0,0.6,0,0.6-0.6,0.6
		c-0.8,0-1.7,0-2.5,0c-0.2,0-0.2,0-0.2,0.2c0,0.5,0,1,0,1.5c0,0.2,0,0.2,0.2,0.2c0.9,0,1.8,0,2.7,0c0.2,0,0.2,0.1,0.2,0.2
		c0,0.6,0,0.6-0.6,0.6c-0.8,0-1.6,0-2.3,0c-0.2,0-0.2,0-0.2,0.2c0,0.6,0,1.1,0,1.7c0,0.2,0.1,0.2,0.2,0.2c1,0,2.1,0,3.1,0
		c0.2,0,0.2,0,0.2,0.2c0,0.6,0,0.6-0.6,0.6c-1.2,0-2.4,0-3.6,0c-0.2,0-0.3-0.1-0.3-0.3C27.9,38.1,27.9,37.1,27.9,36.1z"/>
	<path class="st2" d="M10.1,36.1c0-1,0-2,0-3.1c0-0.2,0-0.2,0.2-0.2c1.3,0,2.6,0,3.8,0c0.2,0,0.2,0.1,0.2,0.2c0,0.6,0,0.6-0.6,0.6
		c-0.8,0-1.7,0-2.5,0c-0.2,0-0.3,0.1-0.3,0.3c0,0.5,0,0.9,0,1.4c0,0.2,0,0.3,0.3,0.3c0.9,0,1.8,0,2.6,0c0.2,0,0.2,0,0.2,0.2
		c0,0.6,0,0.6-0.6,0.6c-0.8,0-1.5,0-2.3,0c-0.2,0-0.2,0-0.2,0.2c0,0.5,0,1.1,0,1.7c0,0.2,0,0.2,0.2,0.2c1,0,2,0,3,0
		c0.2,0,0.3,0,0.3,0.3c0,0.6,0,0.6-0.6,0.6c-1.2,0-2.4,0-3.6,0c-0.2,0-0.3-0.1-0.3-0.3C10.1,38.1,10.1,37.1,10.1,36.1z"/>
	<path class="st2" d="M6.5,39.6c-0.6,0-1.3-0.2-1.8-0.7c-0.2-0.2-0.2-0.3,0-0.4c0,0,0,0,0,0c0.2-0.1,0.3-0.3,0.5-0.4
		c0.2-0.1,0.3,0.2,0.4,0.3c0.6,0.4,1.6,0.4,2.1-0.1c0.4-0.5,0.3-1.1-0.2-1.4c-0.3-0.2-0.7-0.3-1.1-0.4c-0.5-0.1-0.9-0.3-1.3-0.7
		c-0.7-0.8-0.6-1.9,0.2-2.6c0.9-0.8,2.6-0.7,3.4,0.1c0.1,0.1,0.1,0.2,0,0.3c-0.2,0.1-0.3,0.3-0.5,0.4c-0.1,0.1-0.1,0.1-0.2,0
		c-0.4-0.5-1.3-0.6-1.9-0.3c-0.6,0.4-0.7,1.2-0.1,1.6c0.4,0.2,0.8,0.3,1.2,0.5c0.4,0.1,0.8,0.3,1.1,0.6c0.8,0.7,0.6,2.2-0.3,2.9
		C7.7,39.5,7.2,39.6,6.5,39.6z"/>
	<path class="st2" d="M24.2,39.6c-0.5,0-1.2-0.2-1.7-0.7c-0.1-0.1-0.2-0.3,0-0.4c0.1-0.1,0.3-0.2,0.4-0.3c0.1-0.1,0.2-0.1,0.3,0
		c0.5,0.5,1.1,0.7,1.8,0.5c0.4-0.1,0.7-0.4,0.8-0.8c0.1-0.4,0-0.7-0.4-0.9c-0.4-0.2-0.8-0.3-1.2-0.5c-0.4-0.1-0.7-0.3-1-0.5
		c-1-0.7-1-2.6,0.6-3.2c0.7-0.3,1.5-0.2,2.2,0.1c0,0,0.1,0,0.1,0.1c0.6,0.3,0.6,0.4,0.1,0.9c0,0-0.1,0-0.1,0.1
		c-0.1,0.2-0.2,0.2-0.4,0c-0.5-0.5-1.4-0.5-1.9-0.1c-0.5,0.4-0.5,1.1,0,1.5c0.4,0.3,0.8,0.4,1.2,0.5c0.2,0.1,0.4,0.1,0.6,0.2
		c0.7,0.3,1.1,0.7,1.1,1.5c0,0.8-0.3,1.4-1,1.8C25.3,39.5,24.9,39.6,24.2,39.6z"/>
	<path class="st3" d="M10.8,14.1c0,0.1,0,0.1,0,0.2c0,0.5,0,1,0,1.5c0,4,0,8.1,0,12.1c0,0.1,0.1,0.3-0.1,0.3c-0.2,0-0.3,0-0.5,0
		c0,0,0-0.1,0-0.1c0,0,0-0.1,0-0.2c0-4.5,0-9.1,0-13.6c0.3-0.2,0.4-0.5,0.6-0.8C10.8,13.7,10.8,13.9,10.8,14.1z"/>
	<path class="st3" d="M10.8,11.3c0,0.1,0,0.1,0,0.2c0,0.2,0,0.4,0,0.6c-0.1-0.3-0.3-0.6-0.6-0.8c0-3.2,0-6.5,0-9.7
		c0-0.3,0.1-0.2,0.3-0.2c0.2,0,0.3,0,0.3,0.2c0,3.1,0,6.2,0,9.4C10.8,11.1,10.8,11.2,10.8,11.3z"/>
	<path class="st2" d="M34.3,36.1c0,1,0,2,0,3.1c0,0.2,0,0.3-0.2,0.2c-0.2,0-0.5,0.1-0.6,0s0-0.4,0-0.6c0-1.9,0-3.8,0-5.7
		c0-0.2,0.1-0.3,0.3-0.2c0.2,0,0.5-0.1,0.6,0.1c0.1,0.1,0,0.4,0,0.6C34.3,34.3,34.3,35.2,34.3,36.1z"/>
	<path class="st2" d="M10.2,11.3c0.3,0.2,0.5,0.5,0.6,0.8c0.1,0.5,0.1,0.9,0,1.4c-0.1,0.3-0.3,0.6-0.6,0.8c-0.4,0.1-0.6-0.1-0.8-0.4
		c-0.3-0.7-0.3-1.4,0-2.1C9.5,11.4,9.8,11.3,10.2,11.3z M9.3,12.8c0,0.4,0.1,0.7,0.3,1c0.2,0.3,0.5,0.3,0.8,0c0.4-0.5,0.4-1.6,0-2.1
		c-0.2-0.3-0.5-0.3-0.7,0C9.4,12.1,9.3,12.4,9.3,12.8z"/>
	<path class="st4" d="M20.3,12.4c0.7,0.2,1.3,0.2,2,0c0.1,0.3,0.1,0.4-0.3,0.5C21.5,13,21,13,20.4,12.8
		C20.2,12.8,20.3,12.6,20.3,12.4z"/>
</g>
</svg>
